<svg width="20" height="15" viewBox="0 0 20 15" fill="none" xmlns="http://www.w3.org/2000/svg">
<g clip-path="url(#clip0_566_17133)">
<rect width="20" height="15" fill="white"/>
<path fill-rule="evenodd" clip-rule="evenodd" d="M0 0H20V15H0V0Z" fill="#2E42A5"/>
<g clip-path="url(#clip1_566_17133)">
<rect width="11" height="9" fill="#2E42A5"/>
<path d="M-1.25269 8.12489L1.22291 9.21064L11.3062 1.18047L12.612 -0.432991L9.96468 -0.79588L5.85197 2.66455L2.54165 4.99607L-1.25269 8.12489Z" fill="#F7FCFF"/>
<path d="M-0.913696 8.88559L0.347505 9.51567L12.1431 -0.582901H10.3723L-0.913696 8.88559Z" fill="#F50100"/>
<path d="M12.5027 8.12489L10.3056 9.52059L-0.0561562 1.18046L-1.36198 -0.432992L1.28532 -0.795882L5.39803 2.66455L8.70835 4.99607L12.5027 8.12489Z" fill="#F7FCFF"/>
<path d="M12.4182 8.67084L11.157 9.30092L6.13431 4.9772L4.64518 4.49412L-1.48763 -0.427466H0.283246L6.41261 4.3773L8.04071 4.95656L12.4182 8.67084Z" fill="#F50100"/>
<path fill-rule="evenodd" clip-rule="evenodd" d="M6 0H5V4H0V5H5V9H6V5H11V4H6V0Z" fill="#F50100"/>
<path fill-rule="evenodd" clip-rule="evenodd" d="M4.0625 0H6.9375V3.0625L11 3V5.875L6.9375 5.9375V9H4.0625V5.9375L0 5.875V3L4.0625 3.0625V0ZM5 4H0V5H5V9H6V5H11V4H6V0H5V4Z" fill="#F7FCFF"/>
</g>
<g clip-path="url(#clip2_566_17133)">
<path d="M5.92003 12.2783L5.09999 13.0362L5.1812 11.9225L4.07742 11.7539L4.99872 11.1231L4.44237 10.1549L5.51001 10.4819L5.92003 9.44334L6.33005 10.4819L7.39769 10.1549L6.84134 11.1231L7.76264 11.7539L6.65886 11.9225L6.74007 13.0362L5.92003 12.2783Z" fill="#F7FCFF"/>
<path d="M13.24 8.29667L12.6933 8.80189L12.7474 8.05947L12.0116 7.94705L12.6258 7.52648L12.2549 6.88107L12.9666 7.09906L13.24 6.40667L13.5133 7.09906L14.2251 6.88107L13.8542 7.52648L14.4684 7.94705L13.7325 8.05947L13.7867 8.80189L13.24 8.29667Z" fill="#F7FCFF"/>
<path d="M14.52 2.96333L13.9733 3.46855L14.0275 2.72613L13.2916 2.61371L13.9058 2.19315L13.5349 1.54774L14.2467 1.76572L14.52 1.07333L14.7934 1.76572L15.5051 1.54774L15.1342 2.19315L15.7484 2.61371L15.0126 2.72613L15.0667 3.46855L14.52 2.96333Z" fill="#F7FCFF"/>
<path d="M17.72 5.63L17.1733 6.13522L17.2274 5.3928L16.4916 5.28037L17.1058 4.85981L16.7349 4.2144L17.4466 4.43239L17.72 3.74L17.9933 4.43239L18.7051 4.2144L18.3342 4.85981L18.9484 5.28037L18.2125 5.3928L18.2667 6.13522L17.72 5.63Z" fill="#F7FCFF"/>
<path d="M15.16 13.2967L14.6133 13.8019L14.6675 13.0595L13.9316 12.947L14.5458 12.5265L14.1749 11.8811L14.8867 12.0991L15.16 11.4067L15.4334 12.0991L16.1451 11.8811L15.7742 12.5265L16.3884 12.947L15.6526 13.0595L15.7067 13.8019L15.16 13.2967Z" fill="#F7FCFF"/>
<path d="M17.4 9.13916L16.8445 9.43119L16.9506 8.81267L16.5012 8.37464L17.1222 8.2844L17.4 7.72166L17.6777 8.2844L18.2987 8.37464L17.8493 8.81267L17.9554 9.43119L17.4 9.13916Z" fill="#F7FCFF"/>
</g>
</g>
<defs>
<clipPath id="clip0_566_17133">
<rect width="20" height="15" fill="white"/>
</clipPath>
<clipPath id="clip1_566_17133">
<rect width="11" height="9" fill="white"/>
</clipPath>
<clipPath id="clip2_566_17133">
<rect width="15" height="13" fill="white" transform="translate(4 1)"/>
</clipPath>
</defs>
</svg>
