<svg width="20" height="15" viewBox="0 0 20 15" fill="none" xmlns="http://www.w3.org/2000/svg">
<g clip-path="url(#clip0_566_17133)">
<rect width="20" height="15" fill="white"/>
<path fill-rule="evenodd" clip-rule="evenodd" d="M0 0V15H20V0H0Z" fill="#F7FCFF"/>
<mask id="mask0_566_17133" style="mask-type:luminance" maskUnits="userSpaceOnUse" x="0" y="0" width="20" height="15">
<path fill-rule="evenodd" clip-rule="evenodd" d="M0 0V15H20V0H0Z" fill="white"/>
</mask>
<g mask="url(#mask0_566_17133)">
<path fill-rule="evenodd" clip-rule="evenodd" d="M0 0V7.5H20V0H0Z" fill="#E31D1C"/>
<path fill-rule="evenodd" clip-rule="evenodd" d="M5.54277 6.61849C5.54277 6.61849 3.77671 5.90819 3.77671 3.98377C3.77671 2.05935 5.54277 1.37199 5.54277 1.37199C4.68443 1.15469 2.40686 1.34904 2.40686 3.98377C2.40686 6.61849 4.65002 7.11537 5.54277 6.61849ZM5.99525 6.3004L6.50189 5.99454L7.01969 6.3004L6.89297 5.70355L7.3139 5.23271H6.74359L6.50189 4.6754L6.26019 5.23271L5.6889 5.25687L6.11081 5.70355L5.99525 6.3004ZM8.34333 5.96039L7.83669 6.26625L7.95225 5.6694L7.53034 5.22271L8.10163 5.19856L8.34333 4.64125L8.58503 5.19856H9.15534L8.7344 5.6694L8.86113 6.26625L8.34333 5.96039ZM7.05448 3.60618L7.56112 3.30032L8.07893 3.60618L7.9522 3.00933L8.37314 2.53849H7.80282L7.56112 1.98118L7.31943 2.53849L6.74814 2.56264L7.17005 3.00933L7.05448 3.60618ZM5.85613 4.51417L5.34949 4.82003L5.46505 4.22318L5.04314 3.7765L5.61443 3.75234L5.85613 3.19503L6.09783 3.75234H6.66814L6.24721 4.22318L6.37394 4.82003L5.85613 4.51417ZM8.6985 4.79262L9.20514 4.48676L9.72294 4.79262L9.59622 4.19577L10.0172 3.72493H9.44684L9.20514 3.16762L8.96344 3.72493L8.39215 3.74909L8.81406 4.19577L8.6985 4.79262Z" fill="#F1F9FF"/>
</g>
</g>
<defs>
<clipPath id="clip0_566_17133">
<rect width="20" height="15" fill="white"/>
</clipPath>
</defs>
</svg>
